<svg width="42" height="42" viewBox="0 0 42 42" fill="none" xmlns="http://www.w3.org/2000/svg">
<circle cx="21" cy="21" r="21" fill="white"/>
<path d="M27.0001 15.6667C27.0001 15.4899 26.9298 15.3203 26.8048 15.1953C26.6798 15.0702 26.5102 15 26.3334 15C26.1566 15 25.987 15.0702 25.862 15.1953C25.737 15.3203 25.6667 15.4899 25.6667 15.6667V26.3333C25.6667 26.5101 25.737 26.6797 25.862 26.8047C25.987 26.9298 26.1566 27 26.3334 27C26.5102 27 26.6798 26.9298 26.8048 26.8047C26.9298 26.6797 27.0001 26.5101 27.0001 26.3333V15.6667Z" fill="#329ECB"/>
<path d="M15 16.2981C15 15.3488 16.0747 14.7968 16.8467 15.3501L23.8267 20.3548C23.9814 20.4657 24.1066 20.6129 24.1914 20.7834C24.2762 20.954 24.3179 21.1426 24.313 21.333C24.3081 21.5234 24.2566 21.7096 24.1631 21.8755C24.0696 22.0414 23.9369 22.1819 23.7767 22.2848L16.7967 26.7621C16.02 27.2601 15 26.7028 15 25.7801V16.2981Z" fill="#329ECB"/>
</svg>
