<svg width="60" height="60" viewBox="0 0 60 60" fill="none" xmlns="http://www.w3.org/2000/svg">
<circle cx="30" cy="30" r="30" fill="#329ECB"/>
<path d="M32 40.7778C32 41.1019 32.158 41.4128 32.4393 41.642C32.7206 41.8712 33.1022 42 33.5 42C33.8978 42 34.2794 41.8712 34.5607 41.642C34.842 41.4128 35 41.1019 35 40.7778V21.2222C35 20.8981 34.842 20.5872 34.5607 20.358C34.2794 20.1288 33.8978 20 33.5 20C33.1022 20 32.7206 20.1288 32.4393 20.358C32.158 20.5872 32 20.8981 32 21.2222V40.7778Z" fill="white"/>
<path d="M25 40.7778C25 41.1019 25.158 41.4128 25.4393 41.642C25.7206 41.8712 26.1022 42 26.5 42C26.8978 42 27.2794 41.8712 27.5607 41.642C27.842 41.4128 28 41.1019 28 40.7778V21.2222C28 20.8981 27.842 20.5872 27.5607 20.358C27.2794 20.1288 26.8978 20 26.5 20C26.1022 20 25.7206 20.1288 25.4393 20.358C25.158 20.5872 25 20.8981 25 21.2222V40.7778Z" fill="white"/>
</svg>
