<svg width="42" height="42" viewBox="0 0 42 42" fill="none" xmlns="http://www.w3.org/2000/svg">
<circle cx="21" cy="21" r="21" fill="white"/>
<path d="M15 26.3333C15 26.5101 15.0702 26.6797 15.1953 26.8047C15.3203 26.9298 15.4899 27 15.6667 27C15.8435 27 16.013 26.9298 16.1381 26.8047C16.2631 26.6797 16.3333 26.5101 16.3333 26.3333V15.6667C16.3333 15.4899 16.2631 15.3203 16.1381 15.1953C16.013 15.0702 15.8435 15 15.6667 15C15.4899 15 15.3203 15.0702 15.1953 15.1953C15.0702 15.3203 15 15.4899 15 15.6667V26.3333Z" fill="#329ECB"/>
<path d="M26.9999 25.7021C26.9999 26.6514 25.9252 27.2034 25.1532 26.6501L18.1732 21.6454C18.0185 21.5345 17.8933 21.3873 17.8085 21.2168C17.7237 21.0462 17.682 20.8576 17.6869 20.6672C17.6918 20.4768 17.7433 20.2906 17.8368 20.1247C17.9303 19.9588 18.0629 19.8183 18.2232 19.7154L25.2032 15.2381C25.9799 14.7394 26.9999 15.2974 26.9999 16.2201V25.7021Z" fill="#329ECB"/>
</svg>
